<svg data-v-0dd9719b="" version="1.0" xmlns="http://www.w3.org/2000/svg" xmlns:xlink="http://www.w3.org/1999/xlink" width="100%" height="100%" viewBox="0 0 340.000000 250.000000" preserveAspectRatio="xMidYMid meet" color-interpolation-filters="sRGB" style="margin: auto;"> <rect data-v-0dd9719b="" x="0" y="0" width="100%" height="100%" fill="#ffffff" fill-opacity="1" class="background"></rect> <rect data-v-0dd9719b="" x="0" y="0" width="100%" height="100%" fill="url(#watermark)" fill-opacity="1" class="watermarklayer"></rect> <g data-v-0dd9719b="" fill="#3a533d" class="icon-text-wrapper icon-svg-group iconsvg" transform="translate(81.91000366210938,79.14017486572266)"><g class="iconsvg-imagesvg" transform="translate(58.089996337890625,0)"><g><rect fill="#3a533d" fill-opacity="0" stroke-width="2" x="0" y="0" width="60" height="43.701518627772316" class="image-rect"></rect> <svg x="0" y="0" width="60" height="43.701518627772316" filtersec="colorsb2276132819" class="image-svg-svg primary" style="overflow: visible;"><svg xmlns="http://www.w3.org/2000/svg" viewBox="0.0001843869686126709 0.04999852180480957 250.879638671875 182.72999572753906"><g><g><path d="M126.73 54.05a27 27 0 1 0-27-27 27 27 0 0 0 27 27z" fill="#3a533d"></path><path d="M192 35.9c-.08-.22-.15-.45-.23-.67C183 43.1 170 51.93 150.4 61.08l-.11.06c-1.48.83-3 1.66-4.62 2.47-9.55 4.8-15.46 11.09-18.94 17.9-3.48-6.81-9.39-13.1-18.94-17.9-1.62-.81-3.14-1.64-4.61-2.47l-.12-.06c-19.58-9.15-32.64-18-41.35-25.85-.07.22-.15.45-.23.67C56.62 50.56 64.11 66 79.54 74c9.73 5 18.87 10.52 26.58 16.84a63.22 63.22 0 0 1 18.42 25.63c.6 2.34 1.26 4.5 1.92 6.42h.24v-.11.11h.3c.66-1.92 1.32-4.08 1.92-6.42a63.22 63.22 0 0 1 18.42-25.63C155.05 84.52 164.19 79 173.92 74c15.43-8 22.92-23.44 18.08-38.1z" fill="#3a533d"></path><path d="M.35 33.71c-1.17 3.5.93 10.44 1.41 13.94 4.5 32.72 16.54 62.7 39.74 87 22.23 23.27 49.37 37.58 74.32 48.13-.13-.05 3.46-13.82 3.59-14.72 3-20.59-2.3-45.74-17.6-60.68C85.84 91.77 62 81.62 42.63 70.72l-.12-.06s-.46 19.56 18 28.69S79 125.86 79 125.86s-39.53-19.12-58.65-56.94-20-35.21-20-35.21zM250.53 33.71c1.17 3.5-.93 10.44-1.41 13.94-4.5 32.72-16.54 62.7-39.74 87-22.23 23.27-49.37 37.58-74.32 48.13.13-.05-3.46-13.82-3.59-14.72-3-20.59 2.3-45.74 17.6-60.68 16-15.58 39.85-25.73 59.18-36.63l.12-.06s.46 19.56-18 28.69-18.49 26.51-18.49 26.51 39.55-19.12 58.68-56.94 19.97-35.24 19.97-35.24z" fill="#b4dd7b"></path></g></g></svg></svg> <!----></g></g> <g transform="translate(0,48.70151901245117)"><g data-gra="path-name" fill-rule="" class="tp-name iconsvg-namesvg" transform="translate(0,0)"><g transform="scale(1)"><g><path d="M5.98-20.93Q5.44-20.75 5.22-20.75L5.22-20.75Q4.63-20.75 4.25-21.11 3.87-21.46 3.87-21.96L3.87-21.96Q3.87-22.36 4.14-22.68L4.14-22.68Q5-23.76 5.74-24.07 6.48-24.39 7.65-24.39L7.65-24.39Q8.28-23.89 10.26-23.89L10.26-23.89 13.81-23.89 13.81-24.97Q13.81-25.74 14.56-26.12 15.3-26.5 16.96-26.73L16.96-26.73Q18.54-26.95 18.54-25.02L18.54-25.02Q18.54-24.79 18.45-24.07L18.45-24.07 18.45-23.94 26.82-23.94Q26.86-24.66 26.86-25.47L26.86-25.47Q26.86-26.23 27.61-26.62 28.35-27 30.02-27.22L30.02-27.22Q31.59-27.45 31.59-25.52L31.59-25.52Q31.59-25.29 31.5-24.57L31.5-24.57 31.5-23.94 38.74-23.98Q39.96-23.98 40.39-23.71 40.81-23.45 40.77-22.63L40.77-22.63Q40.5-21.82 40.09-21.53 39.69-21.24 38.74-21.15L38.74-21.15Q36.27-21.29 31.45-21.42L31.45-21.42Q31.41-20.16 30.89-19.6 30.38-19.04 28.84-18.72L28.84-18.72Q28.39-18.63 28.17-18.63L28.17-18.63Q26.77-18.63 26.77-20.56L26.77-20.56Q26.77-21.02 26.82-21.24L26.82-21.24 26.82-21.51Q24.07-21.55 18.4-21.55L18.4-21.55 18.4-21.29Q18.4-19.84 17.91-19.21 17.41-18.59 15.79-18.22L15.79-18.22Q15.34-18.13 15.12-18.13L15.12-18.13Q13.72-18.13 13.72-20.07L13.72-20.07Q13.72-20.52 13.77-20.75L13.77-20.75 13.77-21.51Q7.29-21.38 5.98-20.93L5.98-20.93ZM28.8-16.56Q30.46-16.38 31.27-15.41 32.09-14.45 31.99-13.09L31.99-13.09Q31.77-10.21 30.44-7.38 29.11-4.54 27.09-2.7 25.06-0.85 22.77-0.85L22.77-0.85Q20.43-0.85 18.27-2.83L18.27-2.83Q17.73-3.33 17.73-3.82L17.73-3.82Q17.73-4.18 18.04-4.43 18.36-4.68 18.9-4.68L18.9-4.68 19.3-4.63Q20.02-4.46 20.84-4.46L20.84-4.46Q22.86-4.46 24.32-5.6 25.79-6.75 26.53-8.57 27.27-10.39 27.27-12.33L27.27-12.33Q27.27-13.41 26.91-13.75 26.55-14.08 25.43-14.17L25.43-14.17Q24.25-11.65 22.12-9.02 19.98-6.39 17.5-4.43 15.03-2.48 12.91-1.84L12.91-1.84Q12.38-1.71 11.74-1.71L11.74-1.71Q10.62-1.71 9.38-2.09 8.14-2.48 7.56-2.97L7.56-2.97Q6.93-3.51 6.93-3.87L6.93-3.87Q6.93-4.32 7.69-4.63L7.69-4.63Q11.92-5.85 15.59-8.46 19.26-11.07 20.93-14.49L20.93-14.49Q18.54-14.54 15.88-14.13L15.88-14.13Q15.43-14.04 15.25-14.04L15.25-14.04Q14.49-14.04 14.13-14.58L14.13-14.58Q13.9-15.12 13.9-15.43L13.9-15.43Q13.9-15.97 14.26-16.38L14.26-16.38Q15.07-17.32 15.79-17.71 16.52-18.09 17.28-18.09L17.28-18.09Q17.82-18.09 18.45-17.95L18.45-17.95Q18.95-17.55 19.57-17.41 20.2-17.28 21.24-17.19L21.24-17.19 21.82-17.14Q21.91-17.41 21.91-17.5L21.91-17.5Q22.14-18.68 22.79-19.39 23.45-20.11 24.25-20.11L24.25-20.11Q24.61-20.11 24.93-19.98L24.93-19.98Q25.96-19.53 26.26-18.97 26.55-18.4 26.55-17.5L26.55-17.5 26.41-16.79 28.8-16.56ZM14.76-12.64Q14.85-12.42 14.85-12.06L14.85-12.06Q14.85-11.25 14.22-10.75L14.22-10.75Q13.46-10.13 12.13-9.49 10.8-8.87 9.61-8.37 8.41-7.88 8.1-7.74L8.1-7.74Q6.88-7.29 5.98-6.88L5.98-6.88Q5.26-6.57 4.72-6.57L4.72-6.57Q3.46-6.57 2.65-8.05L2.65-8.05Q2.25-8.96 2.25-9.54L2.25-9.54Q2.25-10.75 4.14-10.93L4.14-10.93Q7.25-11.03 10.06-11.7 12.87-12.38 13.81-13L13.81-13Q13.9-13.05 14.04-13.09 14.17-13.14 14.31-13.14L14.31-13.14Q14.58-13.14 14.76-12.64L14.76-12.64ZM41.67-9.36Q43.65-9.09 43.65-7.83L43.65-7.83Q43.65-7.11 43.02-6.08L43.02-6.08Q42.03-4.63 40.73-4.63L40.73-4.63Q40-4.63 39.2-5.08L39.2-5.08Q38.34-5.63 37.53-6.08L37.53-6.08Q35.64-7.25 34.72-7.92 33.8-8.59 32.4-9.9L32.4-9.9Q31.9-10.39 31.9-11.16L31.9-11.16Q31.9-11.65 32.09-12.06L32.09-12.06Q32.27-12.51 32.53-12.51L32.53-12.51Q32.67-12.51 32.83-12.42 32.98-12.33 33.07-12.29L33.07-12.29Q36.59-9.95 41.67-9.36L41.67-9.36ZM48.15-4.05Q48.24-4.32 48.4-4.39 48.55-4.46 48.91-4.5L48.91-4.5Q52.2-5.4 54.13-6.5 56.07-7.6 57.62-11.25 59.17-14.89 59.17-22.05L59.17-22.05Q59.17-23.09 59.09-25.52L59.09-25.52Q59.17-26.46 59.6-27.22 60.03-27.99 61.02-27.99L61.02-27.99Q61.38-27.99 61.83-27.86L61.83-27.86Q62.77-27.54 63.11-27.18 63.45-26.82 63.45-26.37L63.45-26.37 63.41-25.7Q63.45-24.57 63.45-22.45L63.45-22.45Q63.45-14.67 61.92-9.92 60.39-5.17 57.94-3.19 55.48-1.21 52.52-1.21L52.52-1.21Q51.52-1.17 50.27-1.82 49.01-2.48 48.47-3.19L48.47-3.19Q48.06-3.78 48.15-4.05L48.15-4.05ZM84.82-3.73Q84.87-3.51 84.87-3.1L84.87-3.1Q84.87-2.11 84.26-1.55 83.66-0.99 82.22-0.67L82.22-0.67Q81.77-0.58 81.54-0.58L81.54-0.58Q80.14-0.58 80.14-2.52L80.14-2.52Q80.14-2.97 80.19-3.19L80.19-3.19 80.23-24.88Q80.32-26.1 80.66-26.59 81-27.09 81.5-27.22 81.99-27.36 83.38-27.54L83.38-27.54Q84.38-27.54 84.91-27.07 85.45-26.59 85.45-25.33L85.45-25.33Q85.45-24.79 85.32-23.98L85.32-23.98Q84.64-19.21 84.64-11.38L84.64-11.38Q84.64-8.05 84.82-3.73L84.82-3.73ZM73.58-5.54Q73.62-5.31 73.62-4.91L73.62-4.91Q73.62-3.92 73.01-3.35 72.41-2.79 70.97-2.48L70.97-2.48Q70.52-2.38 70.29-2.38L70.29-2.38Q68.89-2.38 68.89-4.32L68.89-4.32Q68.89-4.77 68.94-5L68.94-5 68.98-23.98Q69.08-25.2 69.41-25.7 69.75-26.19 70.25-26.32 70.74-26.46 72.13-26.64L72.13-26.64Q73.13-26.64 73.66-26.17 74.2-25.7 74.2-24.43L74.2-24.43Q74.2-23.89 74.07-23.09L74.07-23.09Q73.39-18.31 73.39-12.29L73.39-12.29Q73.39-9.86 73.58-5.54L73.58-5.54ZM56.7-14.85Q55.8-13.09 54.09-13.09L54.09-13.09Q53.41-13.09 52.56-13.46L52.56-13.46Q52.16-13.72 51.8-14.31 51.44-14.89 51.44-15.48L51.44-15.48Q51.44-16.11 51.93-16.43L51.93-16.43Q53.05-17.1 53.95-18.16 54.86-19.21 55.71-21.02L55.71-21.02Q56.07-22.05 56.7-22.05L56.7-22.05Q57.47-22.05 57.73-20.56L57.73-20.56Q57.83-19.75 57.83-19.35L57.83-19.35Q57.83-16.96 56.7-14.85L56.7-14.85ZM64.31-17.91Q63.99-18.5 63.99-19.13L63.99-19.13Q63.99-20.38 65.25-21.11L65.25-21.11Q65.52-21.24 65.92-21.24L65.92-21.24Q66.51-21.24 66.94-20.97 67.36-20.7 67.32-20.25L67.32-20.25Q67.19-18.27 68.53-15.88L68.53-15.88Q68.85-15.52 68.85-15.12L68.85-15.12Q68.85-14.89 68.69-14.74 68.53-14.58 68.27-14.58L68.27-14.58Q67.91-14.58 67.36-14.85L67.36-14.85Q66.47-15.3 65.63-16.11 64.8-16.92 64.31-17.91L64.31-17.91ZM74.61-17.86Q74.3-18.45 74.3-19.08L74.3-19.08Q74.3-20.34 75.56-21.06L75.56-21.06Q75.83-21.2 76.23-21.2L76.23-21.2Q76.81-21.2 77.24-20.93 77.67-20.65 77.63-20.2L77.63-20.2Q77.49-18.22 78.84-15.84L78.84-15.84Q79.16-15.48 79.16-15.07L79.16-15.07Q79.16-14.85 79-14.69 78.84-14.54 78.57-14.54L78.57-14.54Q78.21-14.54 77.67-14.8L77.67-14.8Q76.77-15.25 75.94-16.06 75.11-16.88 74.61-17.86L74.61-17.86ZM115.29-22.72Q114.21-22.72 113.42-23.15 112.63-23.58 111.73-24.57L111.73-24.57Q111.06-25.33 111.06-26.19L111.06-26.19Q111.06-27.13 111.83-27.86L111.83-27.86Q112.32-28.26 113-28.26L113-28.26Q113.81-28.26 114.08-27.54L114.08-27.54Q114.16-27.18 114.32-26.53 114.48-25.88 114.8-25.29 115.11-24.7 115.83-23.98L115.83-23.98Q116.33-23.63 116.33-23.27L116.33-23.27Q116.33-23.04 116.06-22.88 115.78-22.72 115.29-22.72L115.29-22.72ZM130.37-27.18Q131.35-27.18 131.89-26.71 132.44-26.23 132.44-24.97L132.44-24.97Q132.44-24.43 132.3-23.63L132.3-23.63Q131.63-18.86 131.63-11.16L131.63-11.16Q131.63-6.61 131.81-3.73L131.81-3.73Q131.85-3.51 131.85-3.1L131.85-3.1Q131.85-2.11 131.24-1.55 130.63-0.99 129.19-0.67L129.19-0.67Q128.75-0.58 128.52-0.58L128.52-0.58Q127.13-0.58 127.13-2.52L127.13-2.52Q127.13-2.97 127.17-3.19L127.17-3.19 127.22-23.4Q125.32-23.45 123.95-23.2 122.58-22.95 120.47-22.23L120.47-22.23Q120.06-22.05 119.56-22.05L119.56-22.05Q118.89-22.05 118.44-22.48 117.99-22.9 117.99-23.49L117.99-23.49Q117.99-24.03 118.31-24.39L118.31-24.39Q119.25-25.61 120.17-26.01 121.09-26.41 122.49-26.41L122.49-26.41Q122.89-26.1 123.64-25.99 124.38-25.88 125.69-25.83L125.69-25.83Q126.09-25.79 126.5-25.81 126.9-25.83 127.48-25.83L127.48-25.83Q127.71-26.55 128.2-26.75 128.7-26.95 129.4-27.04 130.09-27.13 130.37-27.18L130.37-27.18ZM99.14-21.96Q98.06-22.23 97.45-22.81 96.84-23.4 96.84-24.21L96.84-24.21Q96.84-24.61 96.97-25.02L96.97-25.02Q97.25-25.56 97.81-25.92 98.37-26.28 98.95-26.28L98.95-26.28Q99.5-26.28 99.9-25.88L99.9-25.88Q100.66-25.06 101.54-24.55 102.42-24.03 103.68-23.45L103.68-23.45Q104.89-22.86 105.48-22.45L105.48-22.45Q106.16-21.96 106.16-21.42L106.16-21.42Q106.16-21.15 106.02-20.99 105.89-20.84 105.66-20.84L105.66-20.84Q104.67-20.84 101.16-21.55L101.16-21.55Q99.31-21.96 99.14-21.96L99.14-21.96ZM109.84-23.76Q110.7-23.58 111.06-23.33 111.42-23.09 111.51-22.66 111.6-22.23 111.6-21.33L111.6-21.33Q111.6-13.77 109.98-7.96 108.36-2.16 104.94-1.71L104.94-1.71Q103.95-1.57 102.62-2.14 101.3-2.7 100.71-3.33L100.71-3.33Q100.66-3.42 100.51-3.65 100.35-3.87 100.35-4.05L100.35-4.05Q100.35-4.41 100.53-4.52 100.71-4.63 101.07-4.68L101.07-4.68Q103.55-5.44 104.94-6.75 106.34-8.05 106.94-10.19 107.55-12.33 107.55-15.71L107.55-15.71Q107.55-17.64 107.33-20.79L107.33-20.79Q107.33-23.8 109.26-23.8L109.26-23.8Q109.62-23.8 109.84-23.76L109.84-23.76ZM124.29-9.31Q125.46-9.31 125.84-9.09 126.22-8.87 126.09-8.14L126.09-8.14Q125.91-7.33 125.55-7.11 125.19-6.88 124.29-6.79L124.29-6.79Q124.11-6.79 123.3-6.88L123.3-6.88Q122.85-6.93 121.09-7.04 119.34-7.15 117.67-7.15L117.67-7.15Q114.34-7.15 112.72-6.57L112.72-6.57Q112.41-6.43 112.05-6.43L112.05-6.43Q111.56-6.43 111.22-6.77 110.88-7.11 110.88-7.51L110.88-7.51Q110.88-7.83 111.11-8.19L111.11-8.19Q111.78-9.09 112.5-9.4 113.22-9.72 114.25-9.72L114.25-9.72Q114.84-9.27 116.69-9.27L116.69-9.27 116.91-9.27 116.91-12.46Q115.42-12.33 114.53-11.97L114.53-11.97Q114.21-11.83 113.85-11.83L113.85-11.83Q113.36-11.83 113.02-12.17 112.68-12.51 112.68-12.91L112.68-12.91Q112.68-13.23 112.91-13.59L112.91-13.59Q113.58-14.49 114.3-14.8 115.02-15.12 116.06-15.12L116.06-15.12Q116.37-14.85 116.91-14.8L116.91-14.8 116.91-17.19Q115.42-17.05 114.53-16.7L114.53-16.7Q114.21-16.56 113.85-16.56L113.85-16.56Q113.36-16.56 113.02-16.9 112.68-17.23 112.68-17.64L112.68-17.64Q112.68-17.95 112.91-18.31L112.91-18.31Q113.58-19.21 114.3-19.53 115.02-19.84 116.06-19.84L116.06-19.84Q116.64-19.39 118.48-19.39L118.48-19.39 123.84-19.44Q125.01-19.44 125.39-19.21 125.78-18.99 125.64-18.27L125.64-18.27Q125.46-17.46 125.1-17.23 124.74-17.01 123.84-16.92L123.84-16.92 121.14-17.14Q121.05-16.38 120.96-14.67L120.96-14.67 123.84-14.71Q125.01-14.71 125.39-14.49 125.78-14.26 125.64-13.54L125.64-13.54Q125.46-12.73 125.1-12.51 124.74-12.29 123.84-12.2L123.84-12.2 122.4-12.33 120.91-12.46 120.87-10.75 120.91-9.31 124.29-9.31ZM104-15.16Q103.28-14.98 101.61-14.98L101.61-14.98Q101.16-14.98 98.06-15.12L98.06-15.12 96.61-15.16Q95.31-15.3 94.57-15.84 93.83-16.38 93.83-17.28L93.83-17.28Q93.83-17.59 93.87-17.77L93.87-17.77Q94.09-18.4 94.68-18.9 95.27-19.39 95.85-19.39L95.85-19.39Q96.21-19.39 96.57-19.17L96.57-19.17Q97.42-18.59 98.46-18.22 99.5-17.86 101.03-17.5L101.03-17.5Q102.87-17.1 103.64-16.7L103.64-16.7Q104.4-16.34 104.4-15.71L104.4-15.71Q104.4-15.48 104.29-15.32 104.17-15.16 104-15.16L104-15.16ZM104.94-9.54Q103.86-8.28 103.09-7.63 102.33-6.97 100.8-5.89L100.8-5.89Q99.22-4.72 99.14-4.68L99.14-4.68Q98.28-4.14 97.56-4.14L97.56-4.14Q96.57-4.14 95.63-5.26L95.63-5.26Q94.95-6.21 94.95-6.88L94.95-6.88Q94.95-7.88 96.61-8.32L96.61-8.32Q101.56-9.36 104.13-11.65L104.13-11.65Q104.49-11.92 104.67-11.92L104.67-11.92Q104.98-11.92 105.16-11.52L105.16-11.52Q105.39-11.07 105.39-10.66L105.39-10.66Q105.39-9.99 104.94-9.54L104.94-9.54ZM152.73-14.49Q152.19-14.4 152.01-14.4L152.01-14.4Q150.66-14.4 150.21-15.93L150.21-15.93Q150.07-16.47 150.07-16.88L150.07-16.88Q150.07-17.55 150.48-17.82 150.88-18.09 151.83-18.04L151.83-18.04Q153.94-17.91 158.04-18.77L158.04-18.77Q156.96-20.29 156.38-22.14L156.38-22.14Q154.89-22.09 152.55-21.6L152.55-21.6Q152.01-21.42 151.74-21.42L151.74-21.42Q151.16-21.42 150.75-21.78 150.34-22.14 150.34-22.63L150.34-22.63Q150.34-23.04 150.62-23.36L150.62-23.36Q151.43-24.39 152.28-24.73 153.13-25.06 154.35-25.06L154.35-25.06Q154.8-24.75 155.84-24.66L155.84-24.66 155.7-26.1Q155.66-27.09 156.26-27.74 156.87-28.39 157.81-28.39L157.81-28.39Q160.06-28.39 160.38-26.1L160.38-26.1 160.65-24.61 168.3-24.66Q169.47-24.66 169.97-24.48 170.46-24.3 170.46-23.76L170.46-23.76Q170.46-23.49 170.41-23.36L170.41-23.36Q170.28-22.5 169.88-22.32 169.47-22.14 168.3-22.14L168.3-22.14 161.24-22.14Q161.69-20.75 162.31-19.75L162.31-19.75Q163.98-20.16 165.31-20.54 166.63-20.93 167.26-21.15L167.26-21.15Q167.67-21.24 167.87-21.02 168.07-20.79 168.07-20.38L168.07-20.38Q168.07-19.98 167.87-19.62 167.67-19.26 167.26-19.08L167.26-19.08Q165.91-18.54 164.16-17.95L164.16-17.95Q165.42-17.32 167.53-17.32L167.53-17.32Q168.88-17.32 170.5-17.46L170.5-17.46Q171.05-17.5 171.36-17.19 171.68-16.88 171.68-16.47L171.68-16.47Q171.68-16.02 171.34-15.66 171-15.3 170.32-15.16L170.32-15.16Q168.39-14.8 166.72-14.8L166.72-14.8Q162.76-14.8 160.16-16.65L160.16-16.65Q154.13-14.76 152.73-14.49L152.73-14.49ZM148.68-9.27Q148.63-8.23 148.07-7.76 147.51-7.29 146.38-7.29L146.38-7.29Q145.57-7.29 143.87-7.6L143.87-7.6Q143.5-7.65 142.88-7.65L142.88-7.65Q142.11-7.65 141.55-7.49 140.99-7.33 140.4-7.09 139.81-6.84 139.37-6.71L139.37-6.71Q139.23-6.66 139-6.66L139-6.66Q138.33-6.66 138.13-7.45 137.93-8.23 137.93-9.76L137.93-9.76Q137.93-11.61 137.86-15.07 137.79-18.54 137.75-19.3L137.75-19.3Q137.52-21.06 138.67-22.21 139.81-23.36 141.84-23.18L141.84-23.18 144.5-23.04 146.12-22.95Q146.52-22.95 147.06-23.04 147.6-23.13 148-23.18L148-23.18Q149.4-23.36 149.4-21.64L149.4-21.64Q149.4-20.75 149.09-19.53L149.09-19.53Q148.95-18.59 148.68-9.27L148.68-9.27ZM142.51-20.02Q141.75-19.75 141.53-16.61L141.53-16.61 145.62-16.88Q145.44-19.75 144.85-20.07L144.85-20.07Q144.22-20.25 143.69-20.25L143.69-20.25Q143.01-20.25 142.51-20.02L142.51-20.02ZM141.53-10.8Q141.57-10.3 141.79-10.13 142.02-9.95 142.47-9.95L142.47-9.95Q142.88-9.95 143.32-9.99 143.78-10.04 144.27-10.08L144.27-10.08Q145.49-10.13 145.57-11.12L145.57-11.12Q145.66-11.92 145.66-14.22L145.66-14.22Q143.78-14.45 141.39-14.45L141.39-14.45Q141.34-13.14 141.39-12.04 141.44-10.93 141.53-10.8L141.53-10.8ZM176.81-7.47Q177.21-7.6 177.53-7.6L177.53-7.6Q177.93-7.6 178.18-7.42 178.43-7.25 178.43-6.88L178.43-6.88Q178.43-6.66 178.2-6.12L178.2-6.12Q177.39-4.5 175.7-2.83 174.01-1.17 171.94-0.94L171.94-0.94Q171.45-0.9 170.5-0.9L170.5-0.9Q165.6-0.9 162.97-3.62 160.34-6.34 160.47-11.38L160.47-11.38 158.49-11.38Q158.13-8.01 156.51-5.94 154.89-3.87 153.25-2.99 151.6-2.11 149.44-1.35L149.44-1.35Q148.63-1.08 147.78-1.08L147.78-1.08Q146.75-1.08 145.8-1.44 144.85-1.8 144.22-2.29L144.22-2.29Q143.82-2.65 143.82-3.1L143.82-3.1Q143.82-3.82 144.5-3.87L144.5-3.87Q147.56-4.23 149.65-4.86 151.74-5.49 153.25-7.02 154.75-8.55 154.94-11.34L154.94-11.34Q154.03-11.29 151.97-10.89L151.97-10.89Q151.56-10.75 151.25-10.75L151.25-10.75Q150.71-10.75 150.32-11.09 149.94-11.43 149.94-11.88L149.94-11.88Q149.94-12.24 150.16-12.51L150.16-12.51Q150.93-13.46 151.69-13.75 152.46-14.04 153.59-14.04L153.59-14.04Q154.31-13.59 156.24-13.59L156.24-13.59 166.23-13.68Q167.26-13.68 167.72-13.52 168.16-13.37 168.16-12.91L168.16-12.91Q168.16-12.64 168.12-12.51L168.12-12.51Q167.99-11.7 167.63-11.54 167.26-11.38 166.23-11.38L166.23-11.38 163.94-11.38Q163.98-8.69 165.62-7.33 167.26-5.98 170.06-5.98L170.06-5.98Q173.16-5.98 176.81-7.47L176.81-7.47Z" transform="translate(-2.25, 28.389999389648438)"></path></g> <!----> <!----> <!----> <!----> <!----> <!----> <!----></g></g> <g data-gra="path-slogan" fill-rule="" class="tp-slogan iconsvg-slogansvg" fill="#3A533D" transform="translate(5.000007629394531,34.810001373291016)"><rect x="0" height="1" y="3.6050004959106445" width="29.003620147705078"></rect> <rect height="1" y="3.6050004959106445" width="29.003620147705078" x="137.17637252807617"></rect> <g transform="translate(32.00362014770508,0)"><g transform="scale(1)"><path d="M6.57-5.59L6.57-5.59L5.59-5.59Q5.50-7.09 3.61-7.18L3.61-7.18Q1.85-7.13 1.85-5.80L1.85-5.80Q1.85-4.94 2.79-4.81L2.79-4.81L5.03-4.30Q6.79-3.87 6.79-2.15L6.79-2.15Q6.75 0.04 3.70 0.13L3.70 0.13Q2.02 0.13 1.33-0.56L1.33-0.56Q0.47-1.20 0.52-2.54L0.52-2.54L1.55-2.54Q1.59-0.73 3.70-0.69L3.70-0.69Q5.76-0.73 5.80-2.02L5.80-2.02Q5.97-3.09 4.08-3.44L4.08-3.44L2.45-3.78Q0.77-4.25 0.77-5.67L0.77-5.67Q0.90-7.99 3.52-8.08L3.52-8.08Q6.49-8.08 6.57-5.59ZM13.62-2.92L13.62-7.86L14.69-7.86L14.69-2.79Q14.57 0.04 11.47 0.13L11.47 0.13Q8.59 0.04 8.46-2.62L8.46-2.62L8.46-7.86L9.54-7.86L9.54-2.92Q9.58-0.77 11.52-0.73L11.52-0.73Q13.62-0.77 13.62-2.92L13.62-2.92ZM17.40-0.95L22.26-0.95L22.26 0L16.07 0L16.07-0.86L20.88-6.96L16.41-6.96L16.41-7.86L22.26-7.86L22.26-6.96L17.40-0.95ZM24.66-4.64L28.79-4.64L28.79-7.86L29.86-7.86L29.86 0L28.79 0L28.79-3.65L24.66-3.65L24.66 0L23.59 0L23.59-7.86L24.66-7.86L24.66-4.64ZM38.03-3.91L38.03-3.91Q37.85-7.00 35.28-7.18L35.28-7.18Q32.65-7.05 32.53-3.91L32.53-3.91Q32.65-0.86 35.28-0.73L35.28-0.73Q37.85-0.90 38.03-3.91ZM39.10-3.91L39.10-3.91Q38.84 0 35.28 0.13L35.28 0.13Q31.67 0 31.41-3.91L31.41-3.91Q31.62-7.99 35.28-8.08L35.28-8.08Q38.84-7.95 39.10-3.91ZM45.85-2.92L45.85-7.86L46.92-7.86L46.92-2.79Q46.79 0.04 43.70 0.13L43.70 0.13Q40.82 0.04 40.69-2.62L40.69-2.62L40.69-7.86L41.76-7.86L41.76-2.92Q41.81-0.77 43.74-0.73L43.74-0.73Q45.85-0.77 45.85-2.92L45.85-2.92ZM55.99-3.39L53.41-3.39L53.41 0L52.33 0L52.33-7.86L55.99-7.86Q58.61-7.86 58.61-5.76L58.61-5.76Q58.61-4.47 57.49-3.87L57.49-3.87Q58.43-3.61 58.43-2.36L58.43-2.36L58.52-0.95Q58.48-0.34 58.91-0.17L58.91-0.17L58.91 0L57.57 0Q57.45-0.56 57.40-1.98L57.40-1.98Q57.45-3.39 55.99-3.39L55.99-3.39ZM56.07-7.00L53.41-7.00L53.41-4.30L55.90-4.30Q57.49-4.30 57.49-5.67L57.49-5.67Q57.49-7.00 56.07-7.00L56.07-7.00ZM65.61-2.92L65.61-7.86L66.68-7.86L66.68-2.79Q66.55 0.04 63.46 0.13L63.46 0.13Q60.58 0.04 60.45-2.62L60.45-2.62L60.45-7.86L61.53-7.86L61.53-2.92Q61.57-0.77 63.50-0.73L63.50-0.73Q65.61-0.77 65.61-2.92L65.61-2.92ZM69.91-7.86L73.86-1.50L73.86-7.86L74.89-7.86L74.89 0L73.69 0L69.69-6.36L69.65-6.36L69.65 0L68.62 0L68.62-7.86L69.91-7.86ZM83.01-7.86L80.35-4.04L83.14 0L81.81 0L79.66-3.22L77.51 0L76.22 0L79.06-4.04L76.39-7.86L77.73-7.86L79.70-4.86L81.72-7.86L83.01-7.86ZM84.60-7.86L85.67-7.86L85.67 0L84.60 0L84.60-7.86ZM92.98 0L92.21-2.28L89.03-2.28L88.21 0L87.14 0L90.10-7.86L91.30-7.86L94.14 0L92.98 0ZM90.62-6.70L89.37-3.22L91.82-3.22L90.66-6.70L90.62-6.70ZM101.62-3.91L101.62-3.91Q101.44-7.00 98.87-7.18L98.87-7.18Q96.24-7.05 96.12-3.91L96.12-3.91Q96.24-0.86 98.87-0.73L98.87-0.73Q101.44-0.90 101.62-3.91ZM102.69-3.91L102.69-3.91Q102.43 0 98.87 0.13L98.87 0.13Q95.26 0 95.00-3.91L95.00-3.91Q95.21-7.99 98.87-8.08L98.87-8.08Q102.43-7.95 102.69-3.91Z" transform="translate(-0.515625, 8.078125)"></path></g></g></g></g></g><defs v-gra="od"></defs></svg>